<svg xmlns="http://www.w3.org/2000/svg" width="78.163" height="39" viewBox="0 0 78.163 39">
  <g id="Group_127" data-name="Group 127" transform="translate(-469 -2174)">
    <g id="iconfinder_single_bed_1642860" transform="translate(396 2106)">
      <path id="Path_3475" data-name="Path 3475" d="M118.424,82.212v-12.6c0-.464-.044-.616-.509-.616H93.149c-.464,0-1.149.152-1.149.616v12.6" transform="translate(-13.828)" fill="none" stroke="#fcfcfc" stroke-linecap="round" stroke-linejoin="round" stroke-miterlimit="10" stroke-width="2"/>
      <g id="Group_114" data-name="Group 114" transform="translate(74 84.762)">
        <path id="Path_3476" data-name="Path 3476" d="M102.242,137H81.4c-3.869,0-7.4,2.844-7.4,6.713V153.8c0,.464.77,1.046,1.234,1.046h33.173c.464,0,.593-.582.593-1.046V143.713A6.554,6.554,0,0,0,102.242,137Z" transform="translate(-74 -137)" fill="none" stroke="#fcfcfc" stroke-linecap="round" stroke-linejoin="round" stroke-miterlimit="10" stroke-width="2"/>
        <path id="Path_3477" data-name="Path 3477" d="M109,173.841a.841.841,0,0,0-.841-.841H74.841a.841.841,0,0,0-.841.841v7.822a.841.841,0,0,0,.841.841h33.319a.841.841,0,0,0,.841-.841Z" transform="translate(-74 -164.656)" fill="none" stroke="#fcfcfc" stroke-linecap="round" stroke-linejoin="round" stroke-miterlimit="10" stroke-width="2"/>
        <line id="Line_47" data-name="Line 47" y2="7" transform="translate(0 14.238)" fill="none" stroke="#fcfcfc" stroke-linecap="round" stroke-linejoin="round" stroke-miterlimit="10" stroke-width="2"/>
        <line id="Line_48" data-name="Line 48" y2="7" transform="translate(34 14.238)" fill="none" stroke="#fcfcfc" stroke-linecap="round" stroke-linejoin="round" stroke-miterlimit="10" stroke-width="2"/>
      </g>
      <path id="Path_3478" data-name="Path 3478" d="M137.887,109.3a24.83,24.83,0,0,1,.446-4.277.7.7,0,0,0-.67-.706,23.606,23.606,0,0,1-4.129.428,26.371,26.371,0,0,1-4.352-.455.666.666,0,0,0-.67.665,23.931,23.931,0,0,1,.446,4.348" transform="translate(-41.878 -27.112)" fill="none" stroke="#fcfcfc" stroke-linecap="round" stroke-linejoin="round" stroke-miterlimit="10" stroke-width="2"/>
    </g>
    <g id="iconfinder_single_bed_1642860-2" data-name="iconfinder_single_bed_1642860" transform="translate(437 2106)">
      <path id="Path_3475-2" data-name="Path 3475" d="M118.547,82.273V69.619c0-.466-.044-.619-.511-.619H93.155c-.466,0-1.155.152-1.155.619V82.273" transform="translate(-13.808)" fill="none" stroke="#fcfcfc" stroke-linecap="round" stroke-linejoin="round" stroke-miterlimit="10" stroke-width="2"/>
      <g id="Group_114-2" data-name="Group 114" transform="translate(74 84.835)">
        <path id="Path_3476-2" data-name="Path 3476" d="M102.373,137H81.434C77.546,137,74,139.857,74,143.744V153.88c0,.466.773,1.051,1.24,1.051h33.328c.467,0,.6-.585.6-1.051V143.744A6.584,6.584,0,0,0,102.373,137Z" transform="translate(-74 -137)" fill="none" stroke="#fcfcfc" stroke-linecap="round" stroke-linejoin="round" stroke-miterlimit="10" stroke-width="2"/>
        <path id="Path_3477-2" data-name="Path 3477" d="M109.163,173.845a.845.845,0,0,0-.845-.845H74.845a.845.845,0,0,0-.845.845V181.7a.845.845,0,0,0,.845.845h33.474a.845.845,0,0,0,.845-.845Z" transform="translate(-74 -164.617)" fill="none" stroke="#fcfcfc" stroke-linecap="round" stroke-linejoin="round" stroke-miterlimit="10" stroke-width="2"/>
        <line id="Line_47-2" data-name="Line 47" y2="7" transform="translate(0 14.165)" fill="none" stroke="#fcfcfc" stroke-linecap="round" stroke-linejoin="round" stroke-miterlimit="10" stroke-width="2"/>
        <line id="Line_48-2" data-name="Line 48" y2="7" transform="translate(35 14.165)" fill="none" stroke="#fcfcfc" stroke-linecap="round" stroke-linejoin="round" stroke-miterlimit="10" stroke-width="2"/>
      </g>
      <path id="Path_3478-2" data-name="Path 3478" d="M137.93,109.326a24.946,24.946,0,0,1,.448-4.3.705.705,0,0,0-.673-.709,23.716,23.716,0,0,1-4.148.43,26.494,26.494,0,0,1-4.372-.458.669.669,0,0,0-.673.668,24.043,24.043,0,0,1,.449,4.368" transform="translate(-41.819 -27.074)" fill="none" stroke="#fcfcfc" stroke-linecap="round" stroke-linejoin="round" stroke-miterlimit="10" stroke-width="2"/>
    </g>
  </g>
</svg>
