<svg xmlns="http://www.w3.org/2000/svg" width="73.586" height="69.91" viewBox="0 0 73.586 69.91"><defs><style>.a{fill:#fcfcfc;}</style></defs><g transform="translate(-331.667 -1968.138)"><g transform="translate(331.667 1968.138)"><path class="a" d="M128.52,104.3h-.729V80.061l-.011-.667h-.044A13.239,13.239,0,0,0,102.3,75.611a6.035,6.035,0,0,0-5.467,3.778l-.033.082a1.742,1.742,0,0,0,.966,2.266l7.948,3.2a1.742,1.742,0,0,0,2.266-.967l.033-.083a6.037,6.037,0,0,0-1.2-6.384A8.347,8.347,0,0,1,122.9,80.618V104.3H84.109a2.077,2.077,0,0,0-1.833-1.1H73.084a2.077,2.077,0,0,0-1.832,1.1H59.988a2.526,2.526,0,1,0,0,5.053h1.779v21.935a3.075,3.075,0,0,0,3.073,3.071H67.3v1.852a1.077,1.077,0,0,0,1.075,1.075h2.111a1.077,1.077,0,0,0,1.075-1.075V134.36H118.3v1.852a1.077,1.077,0,0,0,1.075,1.075h2.111a1.077,1.077,0,0,0,1.075-1.075V134.36h2.182a3.076,3.076,0,0,0,3.074-3.071V109.354h.7a2.526,2.526,0,0,0,0-5.053ZM106.772,83.389l-.033.082a.409.409,0,0,1-.53.226L98.26,80.5a.407.407,0,0,1-.226-.531l.033-.082a4.691,4.691,0,1,1,8.7,3.5Zm7.777-12.453a9.7,9.7,0,0,0-8.81,5.671,6.058,6.058,0,0,0-2.049-.86,11.9,11.9,0,0,1,22.755,4.343l.01.17V104.3h-2.224V80.619A9.694,9.694,0,0,0,114.549,70.936ZM72.343,105.274a.742.742,0,0,1,.741-.741h9.192a.742.742,0,0,1,.741.741v15.548H72.343Zm0,16.882H83.018v.723a.742.742,0,0,1-.741.741H73.084a.742.742,0,0,1-.741-.741ZM61.768,108.019H59.989a1.194,1.194,0,0,1-1.194-1.192,1.194,1.194,0,0,1,1.194-1.192h11.02v2.384H61.768Zm9.241,1.334v5.519H63.1v-5.519Zm-.779,26.6H68.637V134.36H70.23Zm51,0h-1.593V134.36h1.593Zm5.256-4.664a1.74,1.74,0,0,1-1.739,1.737h-59.9a1.74,1.74,0,0,1-1.739-1.737V116.207h7.907v6.671a2.078,2.078,0,0,0,2.075,2.076h9.192a2.078,2.078,0,0,0,2.076-2.076v-6.671h42.133Zm0-16.416H84.352v-5.519h42.133Zm2.877-7.2a1.183,1.183,0,0,1-.843.35H84.352v-2.384H128.52a1.192,1.192,0,0,1,.843,2.034Z" transform="translate(-57.46 -67.378)"/><rect class="a" width="1.334" height="8.099" transform="translate(40.894 26.238) rotate(-158.654)"/><rect class="a" width="1.334" height="6.208" transform="translate(45.236 20.258) rotate(21.341)"/><rect class="a" width="1.334" height="6.208" transform="translate(38.269 24.198) rotate(-158.654)"/></g></g></svg>