<svg xmlns="http://www.w3.org/2000/svg" width="72.665" height="44.429" viewBox="0 0 72.665 44.429">
  <g id="iconfinder_air_conditioner_1642853" transform="translate(-33.5 -118.5)">
    <path id="Path_3474" data-name="Path 3474" d="M34.5,139.733a4.53,4.53,0,0,0,4.53,4.53h61.606a4.53,4.53,0,0,0,4.53-4.53v-15.7a4.53,4.53,0,0,0-4.53-4.53H39.03a4.53,4.53,0,0,0-4.53,4.53Z" transform="translate(0 0)" fill="none" stroke="#fffaeb" stroke-linecap="round" stroke-linejoin="round" stroke-miterlimit="10" stroke-width="2"/>
    <rect id="Rectangle_509" data-name="Rectangle 509" width="44" height="9" transform="translate(42.5 135.5)" fill="none" stroke="#fffaeb" stroke-linecap="round" stroke-linejoin="round" stroke-miterlimit="10" stroke-width="2"/>
    <circle id="Ellipse_17" data-name="Ellipse 17" cx="1.51" cy="1.51" r="1.51" transform="translate(90.418 137.317)" fill="#fcfcfc"/>
    <circle id="Ellipse_18" data-name="Ellipse 18" cx="1.51" cy="1.51" r="1.51" transform="translate(96.458 137.317)" fill="#fcfcfc"/>
    <line id="Line_40" data-name="Line 40" x2="55.868" transform="translate(42.201 125.54)" fill="none" stroke="#fffaeb" stroke-linecap="round" stroke-linejoin="round" stroke-miterlimit="10" stroke-width="2"/>
    <line id="Line_41" data-name="Line 41" x2="55.868" transform="translate(42.201 130.372)" fill="none" stroke="#fffaeb" stroke-linecap="round" stroke-linejoin="round" stroke-miterlimit="10" stroke-width="2"/>
    <line id="Line_42" data-name="Line 42" y2="5.436" transform="translate(45.976 150.454)" fill="none" stroke="#fffaeb" stroke-linecap="round" stroke-linejoin="round" stroke-miterlimit="10" stroke-width="2"/>
    <line id="Line_43" data-name="Line 43" y2="8.456" transform="translate(55.035 150.454)" fill="none" stroke="#fffaeb" stroke-linecap="round" stroke-linejoin="round" stroke-miterlimit="10" stroke-width="2"/>
    <line id="Line_44" data-name="Line 44" y2="11.476" transform="translate(64.095 150.454)" fill="none" stroke="#fffaeb" stroke-linecap="round" stroke-linejoin="round" stroke-miterlimit="10" stroke-width="2"/>
    <line id="Line_45" data-name="Line 45" y2="8.456" transform="translate(73.155 150.454)" fill="none" stroke="#fffaeb" stroke-linecap="round" stroke-linejoin="round" stroke-miterlimit="10" stroke-width="2"/>
    <line id="Line_46" data-name="Line 46" y2="5.436" transform="translate(82.214 150.454)" fill="none" stroke="#fffaeb" stroke-linecap="round" stroke-linejoin="round" stroke-miterlimit="10" stroke-width="2"/>
  </g>
</svg>
