<svg xmlns="http://www.w3.org/2000/svg" width="65.584" height="54.466" viewBox="0 0 65.584 54.466"><defs><style>.a{fill:none;stroke:#fcfcfc;stroke-linecap:round;stroke-linejoin:round;stroke-miterlimit:10;stroke-width:2px;}</style></defs><g transform="translate(-1054.666 -2018)"><g transform="translate(1055.667 2019)"><path class="a" d="M115.367,98.18V69.7a2.512,2.512,0,0,0-2.7-2.7H68.3c-1.656,0-3.3,1.042-3.3,2.7V83.189" transform="translate(-56.58 -62.203)"/><line class="a" y2="8.394" transform="translate(42.897 0)"/><line class="a" y2="8.394" transform="translate(24.909 0)"/><g transform="translate(8.42 36.276)"><path class="a" d="M87.447,172v4.947a5.1,5.1,0,0,1-4.947,5.247h40.473a9.6,9.6,0,0,0,9.444-9.744V172Z" transform="translate(-77.253 -172)"/><path class="a" d="M70.247,182.193A5.356,5.356,0,0,1,65,176.947V172" transform="translate(-65 -172)"/></g><path class="a" d="M91.447,123l3.929,3.929-3.929,3.93" transform="translate(-75.098 -101.414)"/><path class="a" d="M56.974,135.9s-19.991.021-20.058.018" transform="translate(-36.916 -110.444)"/><line class="a" x2="50.367" transform="translate(8.42 16.789)"/><path class="a" d="M115.367,166.29v3.9c0,1.656-1.042,3.3-2.7,3.3H68.3a3.535,3.535,0,0,1-3.3-3.3V151" transform="translate(-56.58 -121.02)"/></g></g></svg>